# xmcd
#
# Track frame offsets: 
#        150
#        15428
#        37065
#        58874
#        79731
#        99068
#        112766
#        127934
#        141526
#        164516
#        176553
#
# Disc length: 2453 seconds
#
# Revision: 0
# Processed by: cddbd v1.5.2PL0 Copyright (c) Steve Scherf et al.
# Submitted via: ExactAudioCopy v1.3
#
DISCID=8809930b
DTITLE=Matt Muldoon - Hoolymungo
DYEAR=2009
DGENRE=Country
TTITLE0=Walking on a Summer Dream
TTITLE1=Big House on Hemlock Street
TTITLE2=Sometimes
TTITLE3=They Won't Be Coming Back
TTITLE4=Born in the City of Angels
TTITLE5=Standing in the Light
TTITLE6=Sitting in a Flat
TTITLE7=The Fate That Time Has Sealed
TTITLE8=Beautiful Barstow
TTITLE9=Talking Bout Love
TTITLE10=Summer Dream Outro
EXTD=
EXTT0=
EXTT1=
EXTT2=
EXTT3=
EXTT4=
EXTT5=
EXTT6=
EXTT7=
EXTT8=
EXTT9=
EXTT10=
PLAYORDER=
